<svg id="visual" viewBox="0 0 900 600" width="900" height="600" xmlns="http://www.w3.org/2000/svg" xmlns:xlink="http://www.w3.org/1999/xlink" version="1.1"><path d="M0 151L12.5 144C25 137 50 123 75 107C100 91 125 73 150 77C175 81 200 107 225 122C250 137 275 141 300 128C325 115 350 85 375 70C400 55 425 55 450 65C475 75 500 95 525 106C550 117 575 119 600 119C625 119 650 117 675 106C700 95 725 75 750 80C775 85 800 115 825 127C850 139 875 133 887.5 130L900 127L900 0L887.5 0C875 0 850 0 825 0C800 0 775 0 750 0C725 0 700 0 675 0C650 0 625 0 600 0C575 0 550 0 525 0C500 0 475 0 450 0C425 0 400 0 375 0C350 0 325 0 300 0C275 0 250 0 225 0C200 0 175 0 150 0C125 0 100 0 75 0C50 0 25 0 12.5 0L0 0Z" fill="#0016bd"></path><path d="M0 319L12.5 308C25 297 50 275 75 263C100 251 125 249 150 249C175 249 200 251 225 260C250 269 275 285 300 266C325 247 350 193 375 191C400 189 425 239 450 255C475 271 500 253 525 249C550 245 575 255 600 266C625 277 650 289 675 298C700 307 725 313 750 307C775 301 800 283 825 272C850 261 875 257 887.5 255L900 253L900 125L887.5 128C875 131 850 137 825 125C800 113 775 83 750 78C725 73 700 93 675 104C650 115 625 117 600 117C575 117 550 115 525 104C500 93 475 73 450 63C425 53 400 53 375 68C350 83 325 113 300 126C275 139 250 135 225 120C200 105 175 79 150 75C125 71 100 89 75 105C50 121 25 135 12.5 142L0 149Z" fill="#3b37ff"></path><path d="M0 391L12.5 383C25 375 50 359 75 346C100 333 125 323 150 314C175 305 200 297 225 306C250 315 275 341 300 331C325 321 350 275 375 279C400 283 425 337 450 350C475 363 500 335 525 321C550 307 575 307 600 312C625 317 650 327 675 345C700 363 725 389 750 390C775 391 800 367 825 347C850 327 875 311 887.5 303L900 295L900 251L887.5 253C875 255 850 259 825 270C800 281 775 299 750 305C725 311 700 305 675 296C650 287 625 275 600 264C575 253 550 243 525 247C500 251 475 269 450 253C425 237 400 187 375 189C350 191 325 245 300 264C275 283 250 267 225 258C200 249 175 247 150 247C125 247 100 249 75 261C50 273 25 295 12.5 306L0 317Z" fill="#746dff"></path><path d="M0 469L12.5 466C25 463 50 457 75 451C100 445 125 439 150 427C175 415 200 397 225 401C250 405 275 431 300 426C325 421 350 385 375 387C400 389 425 429 450 442C475 455 500 441 525 429C550 417 575 407 600 410C625 413 650 429 675 444C700 459 725 473 750 470C775 467 800 447 825 431C850 415 875 403 887.5 397L900 391L900 293L887.5 301C875 309 850 325 825 345C800 365 775 389 750 388C725 387 700 361 675 343C650 325 625 315 600 310C575 305 550 305 525 319C500 333 475 361 450 348C425 335 400 281 375 277C350 273 325 319 300 329C275 339 250 313 225 304C200 295 175 303 150 312C125 321 100 331 75 344C50 357 25 373 12.5 381L0 389Z" fill="#3b37ff"></path><path d="M0 601L12.5 601C25 601 50 601 75 601C100 601 125 601 150 601C175 601 200 601 225 601C250 601 275 601 300 601C325 601 350 601 375 601C400 601 425 601 450 601C475 601 500 601 525 601C550 601 575 601 600 601C625 601 650 601 675 601C700 601 725 601 750 601C775 601 800 601 825 601C850 601 875 601 887.5 601L900 601L900 389L887.5 395C875 401 850 413 825 429C800 445 775 465 750 468C725 471 700 457 675 442C650 427 625 411 600 408C575 405 550 415 525 427C500 439 475 453 450 440C425 427 400 387 375 385C350 383 325 419 300 424C275 429 250 403 225 399C200 395 175 413 150 425C125 437 100 443 75 449C50 455 25 461 12.5 464L0 467Z" fill="#0016bd"></path></svg>