<svg id="visual" width="900" height="600" xmlns="http://www.w3.org/2000/svg" version="1.1"><path d="m0 151 12.5-7C25 137 50 123 75 107s50-34 75-30 50 30 75 45 50 19 75 6 50-43 75-58 50-15 75-5 50 30 75 41 50 13 75 13 50-2 75-13 50-31 75-26 50 35 75 47 50 6 62.5 3l12.5-3V0H0Z" fill="#0016bd"/><path d="m0 319 12.5-11C25 297 50 275 75 263s50-14 75-14 50 2 75 11 50 25 75 6 50-73 75-75 50 48 75 64 50-2 75-6 50 6 75 17 50 23 75 32 50 15 75 9 50-24 75-35 50-15 62.5-17l12.5-2V125l-12.5 3c-12.5 3-37.5 9-62.5-3s-50-42-75-47-50 15-75 26-50 13-75 13-50-2-75-13-50-31-75-41-50-10-75 5-50 45-75 58-50 9-75-6-50-41-75-45-50 14-75 30-50 30-62.5 37L0 149Z" fill="#3b37ff"/><path d="m0 391 12.5-8C25 375 50 359 75 346s50-23 75-32 50-17 75-8 50 35 75 25 50-56 75-52 50 58 75 71 50-15 75-29 50-14 75-9 50 15 75 33 50 44 75 45 50-23 75-43 50-36 62.5-44l12.5-8v-44l-12.5 2c-12.5 2-37.5 6-62.5 17s-50 29-75 35-50 0-75-9-50-21-75-32-50-21-75-17-50 22-75 6-50-66-75-64-50 56-75 75-50 3-75-6-50-11-75-11-50 2-75 14-50 34-62.5 45L0 317Z" fill="#746dff"/><path d="m0 469 12.5-3L75 451c25-6 50-12 75-24s50-30 75-26 50 30 75 25 50-41 75-39 50 42 75 55 50-1 75-13 50-22 75-19 50 19 75 34 50 29 75 26 50-23 75-39 50-28 62.5-34l12.5-6v-98l-12.5 8c-12.5 8-37.5 24-62.5 44s-50 44-75 43-50-27-75-45-50-28-75-33-50-5-75 9-50 42-75 29-50-67-75-71-50 42-75 52-50-16-75-25-50-1-75 8-50 19-75 32-50 29-62.5 37L0 389Z" fill="#3b37ff"/><path d="M0 601h900V389l-12.5 6c-12.5 6-37.5 18-62.5 34s-50 36-75 39-50-11-75-26-50-31-75-34-50 7-75 19-50 26-75 13-50-53-75-55-50 34-75 39-50-21-75-25-50 14-75 26-50 18-75 24l-62.5 15L0 467Z" fill="#0016bd"/></svg>